<?xml version="1.0" standalone="no"?>
<!DOCTYPE svg PUBLIC "-//W3C//DTD SVG 20010904//EN"
 "http://www.w3.org/TR/2001/REC-SVG-20010904/DTD/svg10.dtd">
<svg version="1.0" xmlns="http://www.w3.org/2000/svg"
 width="300.000000pt" height="300.000000pt" viewBox="0 0 300.000000 300.000000"
 preserveAspectRatio="xMidYMid meet">
<metadata>
Created by potrace 1.10, written by Peter Selinger 2001-2011
</metadata>
<g transform="translate(0.000000,300.000000) scale(0.100000,-0.100000)"
fill="#000000" stroke="none">
<path d="M961 1828 c104 -216 210 -439 236 -495 27 -56 51 -102 54 -103 3 0
27 34 53 75 43 67 47 79 38 104 -6 16 -9 31 -6 33 2 3 -5 114 -15 249 l-18
244 -61 140 -60 140 -205 3 -205 2 189 -392z m-26 309 c84 -49 114 -72 128
-98 26 -51 226 -487 248 -541 12 -30 15 -48 8 -48 -7 0 -9 -12 -5 -36 6 -28 2
-44 -21 -80 -15 -24 -31 -44 -34 -44 -6 0 -119 225 -119 236 0 3 -28 63 -61
132 -34 70 -79 165 -101 212 -22 47 -50 108 -63 135 -27 55 -56 135 -50 135 2
0 24 -13 48 -30 45 -30 97 -54 104 -47 2 3 -44 32 -102 66 -58 34 -105 63
-105 66 0 12 22 1 125 -58z m220 32 c7 -8 35 -66 63 -129 37 -89 52 -137 60
-206 12 -87 15 -250 5 -209 -3 10 -12 29 -20 42 -9 13 -12 23 -9 23 4 0 2 6
-4 13 -6 6 -53 95 -103 197 l-92 185 -62 40 c-34 22 -62 43 -62 47 -2 19 205
16 224 -3z"/>
<path d="M1806 2188 c-7 -18 -36 -87 -63 -153 l-50 -120 -18 -233 c-9 -128
-15 -236 -12 -239 3 -2 -1 -22 -8 -44 -18 -49 0 -53 21 -4 16 40 18 59 4 50
-24 -15 2 49 134 334 75 163 97 225 39 114 -17 -32 -46 -87 -64 -123 -19 -36
-43 -86 -54 -112 -34 -85 -38 -64 -20 132 12 122 14 132 65 245 15 33 33 77
40 97 7 20 23 40 34 45 21 9 213 9 222 0 3 -2 -16 -17 -42 -32 -60 -35 -95
-70 -117 -118 -26 -57 -20 -58 11 -3 24 43 41 57 137 112 108 63 154 82 105
44 -14 -10 -63 -40 -110 -67 -57 -32 -79 -48 -67 -51 10 -2 45 15 78 37 33 23
62 41 65 41 12 0 -9 -51 -119 -280 -30 -63 -68 -144 -84 -180 -17 -36 -67
-144 -112 -240 -45 -96 -89 -191 -98 -210 -9 -19 -40 -86 -70 -147 -29 -62
-53 -119 -53 -125 0 -7 -9 -24 -20 -38 -11 -14 -20 -31 -20 -39 0 -8 -7 -22
-15 -31 -9 -10 -18 -35 -21 -56 -4 -27 -2 -35 4 -24 6 8 145 296 310 640 164
344 320 667 346 718 l46 92 -205 0 -205 0 -14 -32z"/>
<path d="M1340 1835 c0 -5 9 -116 20 -245 17 -209 22 -241 44 -287 15 -29 28
-53 30 -53 6 0 -18 85 -26 90 -3 3 -6 12 -5 20 1 8 -2 68 -7 133 -5 65 -6 120
-3 124 3 3 22 -29 41 -71 37 -81 69 -99 39 -23 -53 133 -132 321 -133 312z"/>
<path d="M1644 1818 c-4 -13 -38 -98 -75 -189 -38 -92 -68 -180 -68 -195 1
-21 3 -24 6 -9 3 11 10 27 17 35 7 8 24 41 39 73 15 31 30 57 33 57 3 0 3 -54
0 -119 -5 -112 -8 -125 -43 -201 l-38 -81 -6 108 c-5 108 -5 108 -7 -46 -1
-85 0 -152 2 -150 2 2 16 32 30 67 15 35 40 91 56 124 27 54 30 77 45 256 8
108 18 218 21 245 7 49 0 63 -12 25z"/>
<path d="M1316 1270 c-25 -38 -46 -74 -46 -79 0 -4 36 -84 81 -177 91 -190
115 -243 129 -279 10 -26 30 -34 30 -12 0 29 -31 110 -53 140 -13 17 -54 99
-91 180 l-67 148 27 47 c15 26 34 53 41 60 15 15 18 42 4 42 -4 0 -29 -31 -55
-70z"/>
</g>
</svg>
